<svg width="650" height="36" viewBox="0 0 650 36" fill="none" xmlns="http://www.w3.org/2000/svg">
<rect x="0.35" y="0.35" width="649.3" height="35.3" rx="9.65" fill="white" stroke="#A9AEB8" stroke-width="0.7" stroke-linecap="square"/>
<path d="M274.665 23L271.649 13.926H269.517L266.475 23H268.217L268.932 20.686H272.156L272.884 23H274.665ZM271.74 19.217H269.348L270.505 15.486H270.57L271.74 19.217ZM275.898 25.6H277.562V21.869H277.614C277.874 22.636 278.589 23.156 279.486 23.156C281.202 23.156 282.151 21.869 282.151 19.594C282.151 17.332 281.202 16.058 279.486 16.058C278.589 16.058 277.861 16.552 277.614 17.332H277.562V16.214H275.898V25.6ZM278.953 21.778C278.16 21.778 277.562 21.375 277.562 20.673V18.515C277.562 17.852 278.16 17.423 278.953 17.423C279.811 17.423 280.409 18.06 280.409 19.022V20.192C280.409 21.154 279.811 21.778 278.953 21.778ZM283.693 25.6H285.357V21.869H285.409C285.669 22.636 286.384 23.156 287.281 23.156C288.997 23.156 289.946 21.869 289.946 19.594C289.946 17.332 288.997 16.058 287.281 16.058C286.384 16.058 285.656 16.552 285.409 17.332H285.357V16.214H283.693V25.6ZM286.748 21.778C285.955 21.778 285.357 21.375 285.357 20.673V18.515C285.357 17.852 285.955 17.423 286.748 17.423C287.606 17.423 288.204 18.06 288.204 19.022V20.192C288.204 21.154 287.606 21.778 286.748 21.778ZM294.049 23V21.674H293.152V13.38H291.488V21.362C291.488 22.402 292.021 23 293.152 23H294.049ZM298.197 19.802L297.729 21.518H297.651L297.209 19.802L296.026 16.214H294.375L296.806 23.325L296.494 24.274H295.272V25.6H296.273C297.391 25.6 297.872 25.184 298.21 24.209L300.94 16.214H299.38L298.197 19.802ZM307.801 23.156C309.751 23.156 310.96 21.778 310.96 19.594C310.96 17.423 309.751 16.058 307.801 16.058C305.864 16.058 304.655 17.423 304.655 19.594C304.655 21.778 305.864 23.156 307.801 23.156ZM307.801 21.817C306.943 21.817 306.397 21.258 306.397 20.231V18.97C306.397 17.956 306.943 17.397 307.801 17.397C308.672 17.397 309.218 17.956 309.218 18.97V20.231C309.218 21.258 308.672 21.817 307.801 21.817ZM314.099 23V18.515C314.099 17.787 314.762 17.423 315.451 17.423C316.244 17.423 316.569 17.917 316.569 18.879V23H318.233V18.71C318.233 17.02 317.453 16.058 316.062 16.058C315.009 16.058 314.437 16.617 314.164 17.345H314.099V16.214H312.435V23H314.099ZM329.39 15.447V13.926H322.526V15.447H325.1V23H326.816V15.447H329.39ZM331.523 15.226C332.199 15.226 332.498 14.875 332.498 14.394V14.134C332.498 13.653 332.199 13.302 331.523 13.302C330.834 13.302 330.548 13.653 330.548 14.134V14.394C330.548 14.875 330.834 15.226 331.523 15.226ZM330.691 23H332.355V16.214H330.691V23ZM335.948 23V18.515C335.948 17.787 336.572 17.423 337.209 17.423C337.95 17.423 338.301 17.904 338.301 18.879V23H339.965V18.515C339.965 17.787 340.576 17.423 341.226 17.423C341.967 17.423 342.318 17.904 342.318 18.879V23H343.982V18.71C343.982 17.02 343.228 16.058 341.902 16.058C340.823 16.058 340.069 16.669 339.822 17.423H339.796C339.471 16.513 338.756 16.058 337.833 16.058C336.819 16.058 336.273 16.63 336.013 17.345H335.948V16.214H334.284V23H335.948ZM348.567 23.156C349.828 23.156 350.816 22.675 351.375 21.908L350.478 20.907C350.062 21.44 349.568 21.83 348.749 21.83C347.657 21.83 347.098 21.167 347.098 20.192V20.023H351.609V19.477C351.609 17.618 350.634 16.058 348.515 16.058C346.526 16.058 345.369 17.449 345.369 19.594C345.369 21.765 346.565 23.156 348.567 23.156ZM348.541 17.306C349.399 17.306 349.88 17.943 349.88 18.879V18.996H347.098V18.892C347.098 17.956 347.67 17.306 348.541 17.306ZM355.296 23.156C356.986 23.156 358.091 22.246 358.091 20.933C358.091 19.802 357.376 19.139 355.894 18.931L355.205 18.84C354.568 18.736 354.321 18.528 354.321 18.073C354.321 17.657 354.633 17.371 355.348 17.371C356.011 17.371 356.583 17.683 356.973 18.099L357.948 17.124C357.298 16.448 356.622 16.058 355.296 16.058C353.749 16.058 352.722 16.89 352.722 18.203C352.722 19.438 353.528 20.075 354.984 20.257L355.66 20.348C356.258 20.426 356.492 20.673 356.492 21.063C356.492 21.544 356.154 21.843 355.361 21.843C354.594 21.843 353.996 21.492 353.502 20.92L352.488 21.908C353.164 22.688 354.009 23.156 355.296 23.156ZM359.56 24.274H358.52V25.6H359.43C360.678 25.6 361.224 24.95 361.224 23.819V16.214H359.56V24.274ZM360.392 15.226C361.068 15.226 361.367 14.875 361.367 14.394V14.134C361.367 13.653 361.068 13.302 360.392 13.302C359.703 13.302 359.417 13.653 359.417 14.134V14.394C359.417 14.875 359.703 15.226 360.392 15.226ZM365.844 23.156C367.794 23.156 369.003 21.778 369.003 19.594C369.003 17.423 367.794 16.058 365.844 16.058C363.907 16.058 362.698 17.423 362.698 19.594C362.698 21.778 363.907 23.156 365.844 23.156ZM365.844 21.817C364.986 21.817 364.44 21.258 364.44 20.231V18.97C364.44 17.956 364.986 17.397 365.844 17.397C366.715 17.397 367.261 17.956 367.261 18.97V20.231C367.261 21.258 366.715 21.817 365.844 21.817ZM370.478 23H372.142V21.869H372.194C372.454 22.636 373.169 23.156 374.066 23.156C375.782 23.156 376.731 21.869 376.731 19.594C376.731 17.332 375.782 16.058 374.066 16.058C373.169 16.058 372.441 16.552 372.194 17.332H372.142V13.38H370.478V23ZM373.533 21.778C372.74 21.778 372.142 21.375 372.142 20.673V18.515C372.142 17.852 372.74 17.423 373.533 17.423C374.391 17.423 374.989 18.06 374.989 19.022V20.192C374.989 21.154 374.391 21.778 373.533 21.778ZM380.496 23.156C382.186 23.156 383.291 22.246 383.291 20.933C383.291 19.802 382.576 19.139 381.094 18.931L380.405 18.84C379.768 18.736 379.521 18.528 379.521 18.073C379.521 17.657 379.833 17.371 380.548 17.371C381.211 17.371 381.783 17.683 382.173 18.099L383.148 17.124C382.498 16.448 381.822 16.058 380.496 16.058C378.949 16.058 377.922 16.89 377.922 18.203C377.922 19.438 378.728 20.075 380.184 20.257L380.86 20.348C381.458 20.426 381.692 20.673 381.692 21.063C381.692 21.544 381.354 21.843 380.561 21.843C379.794 21.843 379.196 21.492 378.702 20.92L377.688 21.908C378.364 22.688 379.209 23.156 380.496 23.156Z" fill="#02B875"/>
</svg>
