<svg width="328" height="34" viewBox="0 0 328 34" fill="none" xmlns="http://www.w3.org/2000/svg">
<rect x="0.35" y="0.35" width="327.3" height="33.3" rx="7.65" fill="white" stroke="#A9AEB8" stroke-width="0.7" stroke-linecap="square"/>
<path d="M111.884 22L111.156 19.686H107.932L107.217 22H105.475L108.517 12.926H110.649L113.665 22H111.884ZM109.57 14.486H109.505L108.348 18.217H110.74L109.57 14.486ZM114.898 15.214H116.562V16.332H116.614C116.735 15.942 116.965 15.6343 117.303 15.409C117.641 15.175 118.035 15.058 118.486 15.058C119.353 15.058 120.011 15.3657 120.462 15.981C120.921 16.5877 121.151 17.4587 121.151 18.594C121.151 19.738 120.921 20.6177 120.462 21.233C120.011 21.8483 119.353 22.156 118.486 22.156C118.035 22.156 117.641 22.039 117.303 21.805C116.974 21.571 116.744 21.259 116.614 20.869H116.562V24.6H114.898V15.214ZM117.953 20.778C118.386 20.778 118.737 20.635 119.006 20.349C119.275 20.063 119.409 19.6773 119.409 19.192V18.022C119.409 17.5367 119.275 17.151 119.006 16.865C118.737 16.5703 118.386 16.423 117.953 16.423C117.554 16.423 117.221 16.5227 116.952 16.722C116.692 16.9213 116.562 17.1857 116.562 17.515V19.673C116.562 20.0283 116.692 20.3013 116.952 20.492C117.221 20.6827 117.554 20.778 117.953 20.778ZM122.693 15.214H124.357V16.332H124.409C124.53 15.942 124.76 15.6343 125.098 15.409C125.436 15.175 125.83 15.058 126.281 15.058C127.148 15.058 127.806 15.3657 128.257 15.981C128.716 16.5877 128.946 17.4587 128.946 18.594C128.946 19.738 128.716 20.6177 128.257 21.233C127.806 21.8483 127.148 22.156 126.281 22.156C125.83 22.156 125.436 22.039 125.098 21.805C124.769 21.571 124.539 21.259 124.409 20.869H124.357V24.6H122.693V15.214ZM125.748 20.778C126.181 20.778 126.532 20.635 126.801 20.349C127.07 20.063 127.204 19.6773 127.204 19.192V18.022C127.204 17.5367 127.07 17.151 126.801 16.865C126.532 16.5703 126.181 16.423 125.748 16.423C125.349 16.423 125.016 16.5227 124.747 16.722C124.487 16.9213 124.357 17.1857 124.357 17.515V19.673C124.357 20.0283 124.487 20.3013 124.747 20.492C125.016 20.6827 125.349 20.778 125.748 20.778ZM132.152 22C131.58 22 131.16 21.857 130.891 21.571C130.622 21.285 130.488 20.882 130.488 20.362V12.38H132.152V20.674H133.049V22H132.152ZM138.38 15.214H139.94L137.21 23.209C137.124 23.4517 137.024 23.6597 136.911 23.833C136.807 24.015 136.682 24.1623 136.534 24.275C136.387 24.3877 136.209 24.47 136.001 24.522C135.793 24.574 135.551 24.6 135.273 24.6H134.272V23.274H135.494L135.806 22.325L133.375 15.214H135.026L136.209 18.802L136.651 20.518H136.729L137.197 18.802L138.38 15.214ZM146.801 22.156C146.316 22.156 145.878 22.0737 145.488 21.909C145.107 21.7443 144.777 21.506 144.5 21.194C144.231 20.882 144.023 20.5093 143.876 20.076C143.729 19.634 143.655 19.14 143.655 18.594C143.655 18.048 143.729 17.5583 143.876 17.125C144.023 16.6917 144.231 16.3233 144.5 16.02C144.777 15.708 145.107 15.4697 145.488 15.305C145.878 15.1403 146.316 15.058 146.801 15.058C147.286 15.058 147.724 15.1403 148.114 15.305C148.504 15.4697 148.833 15.708 149.102 16.02C149.379 16.3233 149.592 16.6917 149.739 17.125C149.886 17.5583 149.96 18.048 149.96 18.594C149.96 19.14 149.886 19.634 149.739 20.076C149.592 20.5093 149.379 20.882 149.102 21.194C148.833 21.506 148.504 21.7443 148.114 21.909C147.724 22.0737 147.286 22.156 146.801 22.156ZM146.801 20.817C147.243 20.817 147.59 20.6827 147.841 20.414C148.092 20.1453 148.218 19.751 148.218 19.231V17.97C148.218 17.4587 148.092 17.0687 147.841 16.8C147.59 16.5313 147.243 16.397 146.801 16.397C146.368 16.397 146.025 16.5313 145.774 16.8C145.523 17.0687 145.397 17.4587 145.397 17.97V19.231C145.397 19.751 145.523 20.1453 145.774 20.414C146.025 20.6827 146.368 20.817 146.801 20.817ZM151.435 22V15.214H153.099V16.345H153.164C153.303 15.981 153.519 15.6777 153.814 15.435C154.117 15.1837 154.533 15.058 155.062 15.058C155.764 15.058 156.301 15.2877 156.674 15.747C157.047 16.2063 157.233 16.8607 157.233 17.71V22H155.569V17.879C155.569 17.3937 155.482 17.0297 155.309 16.787C155.136 16.5443 154.85 16.423 154.451 16.423C154.278 16.423 154.109 16.449 153.944 16.501C153.788 16.5443 153.645 16.6137 153.515 16.709C153.394 16.7957 153.294 16.9083 153.216 17.047C153.138 17.177 153.099 17.333 153.099 17.515V22H151.435ZM165.816 14.447V22H164.1V14.447H161.526V12.926H168.39V14.447H165.816ZM170.523 14.226C170.176 14.226 169.925 14.148 169.769 13.992C169.622 13.836 169.548 13.6367 169.548 13.394V13.134C169.548 12.8913 169.622 12.692 169.769 12.536C169.925 12.38 170.176 12.302 170.523 12.302C170.861 12.302 171.108 12.38 171.264 12.536C171.42 12.692 171.498 12.8913 171.498 13.134V13.394C171.498 13.6367 171.42 13.836 171.264 13.992C171.108 14.148 170.861 14.226 170.523 14.226ZM169.691 15.214H171.355V22H169.691V15.214ZM173.284 22V15.214H174.948V16.345H175.013C175.143 15.9897 175.351 15.6863 175.637 15.435C175.923 15.1837 176.321 15.058 176.833 15.058C177.301 15.058 177.704 15.1707 178.042 15.396C178.38 15.6213 178.631 15.9637 178.796 16.423H178.822C178.943 16.0417 179.181 15.721 179.537 15.461C179.901 15.1923 180.356 15.058 180.902 15.058C181.569 15.058 182.08 15.2877 182.436 15.747C182.8 16.2063 182.982 16.8607 182.982 17.71V22H181.318V17.879C181.318 16.9083 180.954 16.423 180.226 16.423C180.061 16.423 179.901 16.449 179.745 16.501C179.597 16.5443 179.463 16.6137 179.342 16.709C179.229 16.7957 179.138 16.9083 179.069 17.047C178.999 17.177 178.965 17.333 178.965 17.515V22H177.301V17.879C177.301 16.9083 176.937 16.423 176.209 16.423C176.053 16.423 175.897 16.449 175.741 16.501C175.593 16.5443 175.459 16.6137 175.338 16.709C175.225 16.7957 175.13 16.9083 175.052 17.047C174.982 17.177 174.948 17.333 174.948 17.515V22H173.284ZM187.567 22.156C187.064 22.156 186.613 22.0737 186.215 21.909C185.825 21.7357 185.491 21.4973 185.214 21.194C184.945 20.882 184.737 20.5093 184.59 20.076C184.442 19.634 184.369 19.14 184.369 18.594C184.369 18.0567 184.438 17.5713 184.577 17.138C184.724 16.7047 184.932 16.3363 185.201 16.033C185.469 15.721 185.799 15.4827 186.189 15.318C186.579 15.1447 187.021 15.058 187.515 15.058C188.043 15.058 188.503 15.149 188.893 15.331C189.283 15.513 189.603 15.76 189.855 16.072C190.106 16.384 190.292 16.748 190.414 17.164C190.544 17.5713 190.609 18.009 190.609 18.477V19.023H186.098V19.192C186.098 19.686 186.236 20.0847 186.514 20.388C186.791 20.6827 187.203 20.83 187.749 20.83C188.165 20.83 188.503 20.7433 188.763 20.57C189.031 20.3967 189.27 20.1757 189.478 19.907L190.375 20.908C190.097 21.298 189.716 21.6057 189.231 21.831C188.754 22.0477 188.199 22.156 187.567 22.156ZM187.541 16.306C187.099 16.306 186.748 16.4533 186.488 16.748C186.228 17.0427 186.098 17.424 186.098 17.892V17.996H188.88V17.879C188.88 17.411 188.763 17.034 188.529 16.748C188.303 16.4533 187.974 16.306 187.541 16.306ZM194.296 22.156C193.646 22.156 193.1 22.0477 192.658 21.831C192.216 21.6057 191.826 21.298 191.488 20.908L192.502 19.92C192.753 20.206 193.026 20.4313 193.321 20.596C193.624 20.7607 193.971 20.843 194.361 20.843C194.76 20.843 195.046 20.7737 195.219 20.635C195.401 20.4963 195.492 20.3057 195.492 20.063C195.492 19.8637 195.427 19.7077 195.297 19.595C195.176 19.4737 194.963 19.3913 194.66 19.348L193.984 19.257C193.247 19.1617 192.684 18.9537 192.294 18.633C191.913 18.3037 191.722 17.827 191.722 17.203C191.722 16.8737 191.783 16.579 191.904 16.319C192.025 16.0503 192.199 15.825 192.424 15.643C192.649 15.4523 192.918 15.3093 193.23 15.214C193.551 15.11 193.906 15.058 194.296 15.058C194.625 15.058 194.916 15.084 195.167 15.136C195.427 15.1793 195.661 15.2487 195.869 15.344C196.077 15.4307 196.268 15.5433 196.441 15.682C196.614 15.812 196.783 15.9593 196.948 16.124L195.973 17.099C195.774 16.891 195.535 16.7177 195.258 16.579C194.981 16.4403 194.677 16.371 194.348 16.371C193.984 16.371 193.72 16.436 193.555 16.566C193.399 16.696 193.321 16.865 193.321 17.073C193.321 17.2983 193.386 17.4717 193.516 17.593C193.655 17.7057 193.884 17.788 194.205 17.84L194.894 17.931C196.359 18.139 197.091 18.8063 197.091 19.933C197.091 20.2623 197.022 20.5657 196.883 20.843C196.753 21.1117 196.567 21.3457 196.324 21.545C196.081 21.7357 195.787 21.8873 195.44 22C195.102 22.104 194.721 22.156 194.296 22.156ZM198.56 15.214H200.224V22.819C200.224 23.391 200.081 23.8287 199.795 24.132C199.509 24.444 199.054 24.6 198.43 24.6H197.52V23.274H198.56V15.214ZM199.392 14.226C199.045 14.226 198.794 14.148 198.638 13.992C198.491 13.836 198.417 13.6367 198.417 13.394V13.134C198.417 12.8913 198.491 12.692 198.638 12.536C198.794 12.38 199.045 12.302 199.392 12.302C199.73 12.302 199.977 12.38 200.133 12.536C200.289 12.692 200.367 12.8913 200.367 13.134V13.394C200.367 13.6367 200.289 13.836 200.133 13.992C199.977 14.148 199.73 14.226 199.392 14.226ZM204.844 22.156C204.359 22.156 203.921 22.0737 203.531 21.909C203.15 21.7443 202.82 21.506 202.543 21.194C202.274 20.882 202.066 20.5093 201.919 20.076C201.772 19.634 201.698 19.14 201.698 18.594C201.698 18.048 201.772 17.5583 201.919 17.125C202.066 16.6917 202.274 16.3233 202.543 16.02C202.82 15.708 203.15 15.4697 203.531 15.305C203.921 15.1403 204.359 15.058 204.844 15.058C205.329 15.058 205.767 15.1403 206.157 15.305C206.547 15.4697 206.876 15.708 207.145 16.02C207.422 16.3233 207.635 16.6917 207.782 17.125C207.929 17.5583 208.003 18.048 208.003 18.594C208.003 19.14 207.929 19.634 207.782 20.076C207.635 20.5093 207.422 20.882 207.145 21.194C206.876 21.506 206.547 21.7443 206.157 21.909C205.767 22.0737 205.329 22.156 204.844 22.156ZM204.844 20.817C205.286 20.817 205.633 20.6827 205.884 20.414C206.135 20.1453 206.261 19.751 206.261 19.231V17.97C206.261 17.4587 206.135 17.0687 205.884 16.8C205.633 16.5313 205.286 16.397 204.844 16.397C204.411 16.397 204.068 16.5313 203.817 16.8C203.566 17.0687 203.44 17.4587 203.44 17.97V19.231C203.44 19.751 203.566 20.1453 203.817 20.414C204.068 20.6827 204.411 20.817 204.844 20.817ZM209.478 12.38H211.142V16.332H211.194C211.315 15.942 211.545 15.6343 211.883 15.409C212.221 15.175 212.615 15.058 213.066 15.058C213.933 15.058 214.591 15.3657 215.042 15.981C215.501 16.5877 215.731 17.4587 215.731 18.594C215.731 19.738 215.501 20.6177 215.042 21.233C214.591 21.8483 213.933 22.156 213.066 22.156C212.615 22.156 212.221 22.039 211.883 21.805C211.554 21.571 211.324 21.259 211.194 20.869H211.142V22H209.478V12.38ZM212.533 20.778C212.966 20.778 213.317 20.635 213.586 20.349C213.855 20.063 213.989 19.6773 213.989 19.192V18.022C213.989 17.5367 213.855 17.151 213.586 16.865C213.317 16.5703 212.966 16.423 212.533 16.423C212.134 16.423 211.801 16.5227 211.532 16.722C211.272 16.9213 211.142 17.1857 211.142 17.515V19.673C211.142 20.0283 211.272 20.3013 211.532 20.492C211.801 20.6827 212.134 20.778 212.533 20.778ZM219.496 22.156C218.846 22.156 218.3 22.0477 217.858 21.831C217.416 21.6057 217.026 21.298 216.688 20.908L217.702 19.92C217.953 20.206 218.226 20.4313 218.521 20.596C218.824 20.7607 219.171 20.843 219.561 20.843C219.96 20.843 220.246 20.7737 220.419 20.635C220.601 20.4963 220.692 20.3057 220.692 20.063C220.692 19.8637 220.627 19.7077 220.497 19.595C220.376 19.4737 220.163 19.3913 219.86 19.348L219.184 19.257C218.447 19.1617 217.884 18.9537 217.494 18.633C217.113 18.3037 216.922 17.827 216.922 17.203C216.922 16.8737 216.983 16.579 217.104 16.319C217.225 16.0503 217.399 15.825 217.624 15.643C217.849 15.4523 218.118 15.3093 218.43 15.214C218.751 15.11 219.106 15.058 219.496 15.058C219.825 15.058 220.116 15.084 220.367 15.136C220.627 15.1793 220.861 15.2487 221.069 15.344C221.277 15.4307 221.468 15.5433 221.641 15.682C221.814 15.812 221.983 15.9593 222.148 16.124L221.173 17.099C220.974 16.891 220.735 16.7177 220.458 16.579C220.181 16.4403 219.877 16.371 219.548 16.371C219.184 16.371 218.92 16.436 218.755 16.566C218.599 16.696 218.521 16.865 218.521 17.073C218.521 17.2983 218.586 17.4717 218.716 17.593C218.855 17.7057 219.084 17.788 219.405 17.84L220.094 17.931C221.559 18.139 222.291 18.8063 222.291 19.933C222.291 20.2623 222.222 20.5657 222.083 20.843C221.953 21.1117 221.767 21.3457 221.524 21.545C221.281 21.7357 220.987 21.8873 220.64 22C220.302 22.104 219.921 22.156 219.496 22.156Z" fill="#02B875"/>
</svg>
