<svg width="76" height="28" viewBox="0 0 76 28" fill="none" xmlns="http://www.w3.org/2000/svg">
<rect x="0.4" y="0.4" width="75.2" height="27.2" rx="3.6" stroke="white" stroke-width="0.8"/>
<path d="M13.388 10.624V16.72C13.388 17.088 13.328 17.42 13.208 17.716C13.088 18.012 12.916 18.268 12.692 18.484C12.476 18.692 12.208 18.856 11.888 18.976C11.576 19.088 11.228 19.144 10.844 19.144C10.116 19.144 9.54 18.952 9.116 18.568C8.7 18.176 8.436 17.668 8.324 17.044L9.572 16.768C9.644 17.128 9.78 17.412 9.98 17.62C10.188 17.828 10.476 17.932 10.844 17.932C11.204 17.932 11.492 17.82 11.708 17.596C11.924 17.372 12.032 17.032 12.032 16.576V11.752H9.296V10.624H13.388ZM17.759 19.144C17.327 19.144 16.931 19.068 16.571 18.916C16.219 18.764 15.919 18.548 15.671 18.268C15.423 17.98 15.231 17.636 15.095 17.236C14.959 16.828 14.891 16.376 14.891 15.88C14.891 15.384 14.959 14.936 15.095 14.536C15.231 14.128 15.423 13.784 15.671 13.504C15.919 13.216 16.219 12.996 16.571 12.844C16.931 12.692 17.327 12.616 17.759 12.616C18.191 12.616 18.583 12.692 18.935 12.844C19.295 12.996 19.599 13.216 19.847 13.504C20.095 13.784 20.287 14.128 20.423 14.536C20.559 14.936 20.627 15.384 20.627 15.88C20.627 16.376 20.559 16.828 20.423 17.236C20.287 17.636 20.095 17.98 19.847 18.268C19.599 18.548 19.295 18.764 18.935 18.916C18.583 19.068 18.191 19.144 17.759 19.144ZM17.759 18.064C18.207 18.064 18.567 17.928 18.839 17.656C19.111 17.376 19.247 16.96 19.247 16.408V15.352C19.247 14.8 19.111 14.388 18.839 14.116C18.567 13.836 18.207 13.696 17.759 13.696C17.311 13.696 16.951 13.836 16.679 14.116C16.407 14.388 16.271 14.8 16.271 15.352V16.408C16.271 16.96 16.407 17.376 16.679 17.656C16.951 17.928 17.311 18.064 17.759 18.064ZM22.7444 11.644C22.4724 11.644 22.2724 11.58 22.1444 11.452C22.0244 11.324 21.9644 11.16 21.9644 10.96V10.756C21.9644 10.556 22.0244 10.392 22.1444 10.264C22.2724 10.136 22.4724 10.072 22.7444 10.072C23.0164 10.072 23.2124 10.136 23.3324 10.264C23.4524 10.392 23.5124 10.556 23.5124 10.756V10.96C23.5124 11.16 23.4524 11.324 23.3324 11.452C23.2124 11.58 23.0164 11.644 22.7444 11.644ZM22.0844 12.76H23.3924V19H22.0844V12.76ZM25.2602 19V12.76H26.5682V13.792H26.6282C26.7642 13.456 26.9682 13.176 27.2402 12.952C27.5202 12.728 27.9002 12.616 28.3802 12.616C29.0202 12.616 29.5162 12.828 29.8682 13.252C30.2282 13.668 30.4082 14.264 30.4082 15.04V19H29.1002V15.208C29.1002 14.232 28.7082 13.744 27.9242 13.744C27.7562 13.744 27.5882 13.768 27.4202 13.816C27.2602 13.856 27.1162 13.92 26.9882 14.008C26.8602 14.096 26.7562 14.208 26.6762 14.344C26.6042 14.48 26.5682 14.64 26.5682 14.824V19H25.2602ZM40.5411 17.728H40.4931C40.4051 18.136 40.1651 18.476 39.7731 18.748C39.3891 19.012 38.8771 19.144 38.2371 19.144C37.7411 19.144 37.2811 19.052 36.8571 18.868C36.4331 18.676 36.0651 18.4 35.7531 18.04C35.4491 17.672 35.2091 17.22 35.0331 16.684C34.8651 16.14 34.7811 15.516 34.7811 14.812C34.7811 14.116 34.8691 13.5 35.0451 12.964C35.2211 12.42 35.4691 11.964 35.7891 11.596C36.1091 11.228 36.4931 10.952 36.9411 10.768C37.3891 10.576 37.8891 10.48 38.4411 10.48C39.1931 10.48 39.8291 10.648 40.3491 10.984C40.8691 11.312 41.2731 11.772 41.5611 12.364L40.4571 13.012C40.2971 12.62 40.0491 12.304 39.7131 12.064C39.3771 11.816 38.9531 11.692 38.4411 11.692C37.7771 11.692 37.2411 11.904 36.8331 12.328C36.4331 12.752 36.2331 13.352 36.2331 14.128V15.496C36.2331 16.272 36.4331 16.872 36.8331 17.296C37.2411 17.72 37.7771 17.932 38.4411 17.932C38.7051 17.932 38.9571 17.9 39.1971 17.836C39.4371 17.764 39.6451 17.664 39.8211 17.536C40.0051 17.4 40.1491 17.236 40.2531 17.044C40.3651 16.844 40.4211 16.612 40.4211 16.348V15.7H38.6931V14.536H41.7291V19H40.5411V17.728ZM43.518 19V12.76H44.826V13.96H44.886C44.974 13.64 45.158 13.36 45.438 13.12C45.718 12.88 46.106 12.76 46.602 12.76H46.95V14.02H46.434C45.914 14.02 45.514 14.104 45.234 14.272C44.962 14.44 44.826 14.688 44.826 15.016V19H43.518ZM50.5012 19.144C50.0692 19.144 49.6732 19.068 49.3132 18.916C48.9612 18.764 48.6612 18.548 48.4132 18.268C48.1652 17.98 47.9732 17.636 47.8372 17.236C47.7012 16.828 47.6332 16.376 47.6332 15.88C47.6332 15.384 47.7012 14.936 47.8372 14.536C47.9732 14.128 48.1652 13.784 48.4132 13.504C48.6612 13.216 48.9612 12.996 49.3132 12.844C49.6732 12.692 50.0692 12.616 50.5012 12.616C50.9332 12.616 51.3252 12.692 51.6772 12.844C52.0372 12.996 52.3412 13.216 52.5892 13.504C52.8372 13.784 53.0292 14.128 53.1652 14.536C53.3012 14.936 53.3692 15.384 53.3692 15.88C53.3692 16.376 53.3012 16.828 53.1652 17.236C53.0292 17.636 52.8372 17.98 52.5892 18.268C52.3412 18.548 52.0372 18.764 51.6772 18.916C51.3252 19.068 50.9332 19.144 50.5012 19.144ZM50.5012 18.064C50.9492 18.064 51.3092 17.928 51.5812 17.656C51.8532 17.376 51.9892 16.96 51.9892 16.408V15.352C51.9892 14.8 51.8532 14.388 51.5812 14.116C51.3092 13.836 50.9492 13.696 50.5012 13.696C50.0532 13.696 49.6932 13.836 49.4212 14.116C49.1492 14.388 49.0132 14.8 49.0132 15.352V16.408C49.0132 16.96 49.1492 17.376 49.4212 17.656C49.6932 17.928 50.0532 18.064 50.5012 18.064ZM58.6066 17.968H58.5586C58.5026 18.12 58.4266 18.268 58.3306 18.412C58.2426 18.556 58.1266 18.684 57.9826 18.796C57.8466 18.9 57.6786 18.984 57.4786 19.048C57.2866 19.112 57.0626 19.144 56.8066 19.144C56.1586 19.144 55.6546 18.936 55.2946 18.52C54.9426 18.104 54.7666 17.508 54.7666 16.732V12.76H56.0746V16.564C56.0746 17.532 56.4746 18.016 57.2746 18.016C57.4426 18.016 57.6066 17.996 57.7666 17.956C57.9266 17.908 58.0666 17.84 58.1866 17.752C58.3146 17.664 58.4146 17.552 58.4866 17.416C58.5666 17.28 58.6066 17.12 58.6066 16.936V12.76H59.9146V19H58.6066V17.968ZM61.7876 12.76H63.0956V13.792H63.1556C63.2916 13.416 63.5116 13.128 63.8156 12.928C64.1276 12.72 64.4916 12.616 64.9076 12.616C65.6996 12.616 66.3116 12.904 66.7436 13.48C67.1756 14.048 67.3916 14.848 67.3916 15.88C67.3916 16.912 67.1756 17.716 66.7436 18.292C66.3116 18.86 65.6996 19.144 64.9076 19.144C64.4916 19.144 64.1276 19.04 63.8156 18.832C63.5116 18.624 63.2916 18.336 63.1556 17.968H63.0956V21.4H61.7876V12.76ZM64.5116 18.016C64.9676 18.016 65.3316 17.872 65.6036 17.584C65.8756 17.288 66.0116 16.9 66.0116 16.42V15.34C66.0116 14.86 65.8756 14.476 65.6036 14.188C65.3316 13.892 64.9676 13.744 64.5116 13.744C64.1116 13.744 63.7756 13.844 63.5036 14.044C63.2316 14.236 63.0956 14.492 63.0956 14.812V16.948C63.0956 17.268 63.2316 17.528 63.5036 17.728C63.7756 17.92 64.1116 18.016 64.5116 18.016Z" fill="white"/>
</svg>
