<svg width="70" height="36" viewBox="0 0 70 36" fill="none" xmlns="http://www.w3.org/2000/svg">
<rect width="70" height="36" rx="4" fill="#F1F3F5"/>
<path d="M21.5 21.06C20.93 21.06 20.42 21.285 20.03 21.6375L14.6825 18.525C14.72 18.3525 14.75 18.18 14.75 18C14.75 17.82 14.72 17.6475 14.6825 17.475L19.97 14.3925C20.375 14.7675 20.9075 15 21.5 15C22.745 15 23.75 13.995 23.75 12.75C23.75 11.505 22.745 10.5 21.5 10.5C20.255 10.5 19.25 11.505 19.25 12.75C19.25 12.93 19.28 13.1025 19.3175 13.275L14.03 16.3575C13.625 15.9825 13.0925 15.75 12.5 15.75C11.255 15.75 10.25 16.755 10.25 18C10.25 19.245 11.255 20.25 12.5 20.25C13.0925 20.25 13.625 20.0175 14.03 19.6425L19.37 22.7625C19.3325 22.92 19.31 23.085 19.31 23.25C19.31 24.4575 20.2925 25.44 21.5 25.44C22.7075 25.44 23.69 24.4575 23.69 23.25C23.69 22.0425 22.7075 21.06 21.5 21.06Z" fill="#212529"/>
<path d="M33.468 23.144C32.788 23.144 32.208 23.016 31.728 22.76C31.248 22.496 30.84 22.136 30.504 21.68L31.248 21.056C31.544 21.448 31.872 21.748 32.232 21.956C32.592 22.156 33.016 22.256 33.504 22.256C34.104 22.256 34.56 22.112 34.872 21.824C35.192 21.536 35.352 21.152 35.352 20.672C35.352 20.272 35.232 19.964 34.992 19.748C34.752 19.532 34.356 19.36 33.804 19.232L33.12 19.076C32.352 18.9 31.764 18.636 31.356 18.284C30.956 17.924 30.756 17.42 30.756 16.772C30.756 16.404 30.824 16.076 30.96 15.788C31.096 15.5 31.284 15.26 31.524 15.068C31.772 14.876 32.064 14.732 32.4 14.636C32.744 14.532 33.12 14.48 33.528 14.48C34.16 14.48 34.7 14.596 35.148 14.828C35.604 15.06 35.988 15.4 36.3 15.848L35.544 16.4C35.312 16.08 35.032 15.828 34.704 15.644C34.376 15.46 33.968 15.368 33.48 15.368C32.944 15.368 32.52 15.484 32.208 15.716C31.904 15.94 31.752 16.28 31.752 16.736C31.752 17.136 31.88 17.44 32.136 17.648C32.4 17.848 32.796 18.008 33.324 18.128L34.008 18.284C34.832 18.468 35.428 18.748 35.796 19.124C36.164 19.5 36.348 20 36.348 20.624C36.348 21.008 36.28 21.356 36.144 21.668C36.016 21.98 35.828 22.244 35.58 22.46C35.332 22.676 35.028 22.844 34.668 22.964C34.316 23.084 33.916 23.144 33.468 23.144ZM37.9927 14.12H38.9527V17.816H39.0007C39.1527 17.464 39.3647 17.184 39.6367 16.976C39.9167 16.768 40.2887 16.664 40.7527 16.664C41.3927 16.664 41.8967 16.872 42.2647 17.288C42.6407 17.696 42.8287 18.276 42.8287 19.028V23H41.8687V19.196C41.8687 18.084 41.4007 17.528 40.4647 17.528C40.2727 17.528 40.0847 17.552 39.9007 17.6C39.7247 17.648 39.5647 17.72 39.4207 17.816C39.2767 17.912 39.1607 18.036 39.0727 18.188C38.9927 18.332 38.9527 18.504 38.9527 18.704V23H37.9927V14.12ZM49.313 23C48.953 23 48.693 22.904 48.533 22.712C48.381 22.52 48.285 22.28 48.245 21.992H48.185C48.049 22.376 47.825 22.664 47.513 22.856C47.201 23.048 46.829 23.144 46.397 23.144C45.741 23.144 45.229 22.976 44.861 22.64C44.501 22.304 44.321 21.848 44.321 21.272C44.321 20.688 44.533 20.24 44.957 19.928C45.389 19.616 46.057 19.46 46.961 19.46H48.185V18.848C48.185 18.408 48.065 18.072 47.825 17.84C47.585 17.608 47.217 17.492 46.721 17.492C46.345 17.492 46.029 17.576 45.773 17.744C45.525 17.912 45.317 18.136 45.149 18.416L44.573 17.876C44.741 17.54 45.009 17.256 45.377 17.024C45.745 16.784 46.209 16.664 46.769 16.664C47.521 16.664 48.105 16.848 48.521 17.216C48.937 17.584 49.145 18.096 49.145 18.752V22.16H49.853V23H49.313ZM46.553 22.328C46.793 22.328 47.013 22.3 47.213 22.244C47.413 22.188 47.585 22.108 47.729 22.004C47.873 21.9 47.985 21.78 48.065 21.644C48.145 21.508 48.185 21.36 48.185 21.2V20.18H46.913C46.361 20.18 45.957 20.26 45.701 20.42C45.453 20.58 45.329 20.812 45.329 21.116V21.368C45.329 21.672 45.437 21.908 45.653 22.076C45.877 22.244 46.177 22.328 46.553 22.328ZM51.2231 23V16.808H52.1831V17.948H52.2431C52.3551 17.652 52.5551 17.388 52.8431 17.156C53.1311 16.924 53.5271 16.808 54.0311 16.808H54.4031V17.768H53.8391C53.3191 17.768 52.9111 17.868 52.6151 18.068C52.3271 18.26 52.1831 18.504 52.1831 18.8V23H51.2231ZM57.8988 23.144C57.4748 23.144 57.0908 23.068 56.7468 22.916C56.4108 22.764 56.1188 22.548 55.8708 22.268C55.6308 21.98 55.4428 21.64 55.3068 21.248C55.1788 20.848 55.1148 20.4 55.1148 19.904C55.1148 19.416 55.1788 18.972 55.3068 18.572C55.4428 18.172 55.6308 17.832 55.8708 17.552C56.1188 17.264 56.4108 17.044 56.7468 16.892C57.0908 16.74 57.4748 16.664 57.8988 16.664C58.3148 16.664 58.6868 16.74 59.0148 16.892C59.3428 17.044 59.6228 17.256 59.8548 17.528C60.0868 17.792 60.2628 18.108 60.3828 18.476C60.5108 18.844 60.5748 19.248 60.5748 19.688V20.144H56.1228V20.432C56.1228 20.696 56.1628 20.944 56.2428 21.176C56.3308 21.4 56.4508 21.596 56.6028 21.764C56.7628 21.932 56.9548 22.064 57.1788 22.16C57.4108 22.256 57.6708 22.304 57.9588 22.304C58.3508 22.304 58.6908 22.212 58.9788 22.028C59.2748 21.844 59.5028 21.58 59.6628 21.236L60.3468 21.728C60.1468 22.152 59.8348 22.496 59.4108 22.76C58.9868 23.016 58.4828 23.144 57.8988 23.144ZM57.8988 17.468C57.6348 17.468 57.3948 17.516 57.1788 17.612C56.9628 17.7 56.7748 17.828 56.6148 17.996C56.4628 18.164 56.3428 18.364 56.2548 18.596C56.1668 18.82 56.1228 19.068 56.1228 19.34V19.424H59.5428V19.292C59.5428 18.74 59.3908 18.3 59.0868 17.972C58.7908 17.636 58.3948 17.468 57.8988 17.468Z" fill="#212529"/>
</svg>
