<svg width="42" height="36" viewBox="0 0 42 36" fill="none" xmlns="http://www.w3.org/2000/svg">
<rect width="42" height="36" rx="2" fill="#EDEEF0"/>
<path d="M25.5 21.06C24.93 21.06 24.42 21.285 24.03 21.6375L18.6825 18.525C18.72 18.3525 18.75 18.18 18.75 18C18.75 17.82 18.72 17.6475 18.6825 17.475L23.97 14.3925C24.375 14.7675 24.9075 15 25.5 15C26.745 15 27.75 13.995 27.75 12.75C27.75 11.505 26.745 10.5 25.5 10.5C24.255 10.5 23.25 11.505 23.25 12.75C23.25 12.93 23.28 13.1025 23.3175 13.275L18.03 16.3575C17.625 15.9825 17.0925 15.75 16.5 15.75C15.255 15.75 14.25 16.755 14.25 18C14.25 19.245 15.255 20.25 16.5 20.25C17.0925 20.25 17.625 20.0175 18.03 19.6425L23.37 22.7625C23.3325 22.92 23.31 23.085 23.31 23.25C23.31 24.4575 24.2925 25.44 25.5 25.44C26.7075 25.44 27.69 24.4575 27.69 23.25C27.69 22.0425 26.7075 21.06 25.5 21.06Z" fill="#2D2D2D"/>
</svg>
