<svg width="328" height="34" viewBox="0 0 328 34" fill="none" xmlns="http://www.w3.org/2000/svg">
<rect x="0.35" y="0.35" width="327.3" height="33.3" rx="7.65" fill="white" stroke="#A9AEB8" stroke-width="0.7" stroke-linecap="square"/>
<path d="M129.557 22L132.521 12.926H130.818L129.427 17.346L128.634 20.362H128.595L127.789 17.346L126.398 12.926H124.643L127.607 22H129.557ZM134.519 14.226C135.195 14.226 135.494 13.875 135.494 13.394V13.134C135.494 12.653 135.195 12.302 134.519 12.302C133.83 12.302 133.544 12.653 133.544 13.134V13.394C133.544 13.875 133.83 14.226 134.519 14.226ZM133.687 22H135.351V15.214H133.687V22ZM139.503 22.156C141.193 22.156 142.298 21.246 142.298 19.933C142.298 18.802 141.583 18.139 140.101 17.931L139.412 17.84C138.775 17.736 138.528 17.528 138.528 17.073C138.528 16.657 138.84 16.371 139.555 16.371C140.218 16.371 140.79 16.683 141.18 17.099L142.155 16.124C141.505 15.448 140.829 15.058 139.503 15.058C137.956 15.058 136.929 15.89 136.929 17.203C136.929 18.438 137.735 19.075 139.191 19.257L139.867 19.348C140.465 19.426 140.699 19.673 140.699 20.063C140.699 20.544 140.361 20.843 139.568 20.843C138.801 20.843 138.203 20.492 137.709 19.92L136.695 20.908C137.371 21.688 138.216 22.156 139.503 22.156ZM144.599 14.226C145.275 14.226 145.574 13.875 145.574 13.394V13.134C145.574 12.653 145.275 12.302 144.599 12.302C143.91 12.302 143.624 12.653 143.624 13.134V13.394C143.624 13.875 143.91 14.226 144.599 14.226ZM143.767 22H145.431V15.214H143.767V22ZM149.479 22H150.675V20.674H149.388V16.54H150.779V15.214H149.388V13.355H147.893V14.512C147.893 14.98 147.737 15.214 147.243 15.214H146.723V16.54H147.724V20.271C147.724 21.376 148.335 22 149.479 22ZM158.727 22L159.884 17.203L160.469 14.811H160.495L161.054 17.203L162.211 22H164.148L166.319 12.926H164.681L163.758 17.281L163.186 20.063H163.147L162.51 17.281L161.47 12.926H159.572L158.532 17.281L157.882 20.063H157.843L157.284 17.281L156.387 12.926H154.671L156.777 22H158.727ZM170.085 22.156C171.346 22.156 172.334 21.675 172.893 20.908L171.996 19.907C171.58 20.44 171.086 20.83 170.267 20.83C169.175 20.83 168.616 20.167 168.616 19.192V19.023H173.127V18.477C173.127 16.618 172.152 15.058 170.033 15.058C168.044 15.058 166.887 16.449 166.887 18.594C166.887 20.765 168.083 22.156 170.085 22.156ZM170.059 16.306C170.917 16.306 171.398 16.943 171.398 17.879V17.996H168.616V17.892C168.616 16.956 169.188 16.306 170.059 16.306ZM174.591 22H176.255V20.869H176.307C176.567 21.636 177.282 22.156 178.179 22.156C179.895 22.156 180.844 20.869 180.844 18.594C180.844 16.332 179.895 15.058 178.179 15.058C177.282 15.058 176.554 15.552 176.307 16.332H176.255V12.38H174.591V22ZM177.646 20.778C176.853 20.778 176.255 20.375 176.255 19.673V17.515C176.255 16.852 176.853 16.423 177.646 16.423C178.504 16.423 179.102 17.06 179.102 18.022V19.192C179.102 20.154 178.504 20.778 177.646 20.778ZM184.609 22.156C186.299 22.156 187.404 21.246 187.404 19.933C187.404 18.802 186.689 18.139 185.207 17.931L184.518 17.84C183.881 17.736 183.634 17.528 183.634 17.073C183.634 16.657 183.946 16.371 184.661 16.371C185.324 16.371 185.896 16.683 186.286 17.099L187.261 16.124C186.611 15.448 185.935 15.058 184.609 15.058C183.062 15.058 182.035 15.89 182.035 17.203C182.035 18.438 182.841 19.075 184.297 19.257L184.973 19.348C185.571 19.426 185.805 19.673 185.805 20.063C185.805 20.544 185.467 20.843 184.674 20.843C183.907 20.843 183.309 20.492 182.815 19.92L181.801 20.908C182.477 21.688 183.322 22.156 184.609 22.156ZM189.706 14.226C190.382 14.226 190.681 13.875 190.681 13.394V13.134C190.681 12.653 190.382 12.302 189.706 12.302C189.017 12.302 188.731 12.653 188.731 13.134V13.394C188.731 13.875 189.017 14.226 189.706 14.226ZM188.874 22H190.538V15.214H188.874V22ZM194.585 22H195.781V20.674H194.494V16.54H195.885V15.214H194.494V13.355H192.999V14.512C192.999 14.98 192.843 15.214 192.349 15.214H191.829V16.54H192.83V20.271C192.83 21.376 193.441 22 194.585 22ZM200.021 22.156C201.282 22.156 202.27 21.675 202.829 20.908L201.932 19.907C201.516 20.44 201.022 20.83 200.203 20.83C199.111 20.83 198.552 20.167 198.552 19.192V19.023H203.063V18.477C203.063 16.618 202.088 15.058 199.969 15.058C197.98 15.058 196.823 16.449 196.823 18.594C196.823 20.765 198.019 22.156 200.021 22.156ZM199.995 16.306C200.853 16.306 201.334 16.943 201.334 17.879V17.996H198.552V17.892C198.552 16.956 199.124 16.306 199.995 16.306Z" fill="#E56135"/>
</svg>
