<svg width="652" height="38" viewBox="0 0 652 38" fill="none" xmlns="http://www.w3.org/2000/svg">
<rect x="0.35" y="0.35" width="651.3" height="37.3" rx="7.65" fill="white" stroke="#A9AEB8" stroke-width="0.7" stroke-linecap="square"/>
<path d="M291.557 24L294.521 14.926H292.818L291.427 19.346L290.634 22.362H290.595L289.789 19.346L288.398 14.926H286.643L289.607 24H291.557ZM296.519 16.226C297.195 16.226 297.494 15.875 297.494 15.394V15.134C297.494 14.653 297.195 14.302 296.519 14.302C295.83 14.302 295.544 14.653 295.544 15.134V15.394C295.544 15.875 295.83 16.226 296.519 16.226ZM295.687 24H297.351V17.214H295.687V24ZM301.503 24.156C303.193 24.156 304.298 23.246 304.298 21.933C304.298 20.802 303.583 20.139 302.101 19.931L301.412 19.84C300.775 19.736 300.528 19.528 300.528 19.073C300.528 18.657 300.84 18.371 301.555 18.371C302.218 18.371 302.79 18.683 303.18 19.099L304.155 18.124C303.505 17.448 302.829 17.058 301.503 17.058C299.956 17.058 298.929 17.89 298.929 19.203C298.929 20.438 299.735 21.075 301.191 21.257L301.867 21.348C302.465 21.426 302.699 21.673 302.699 22.063C302.699 22.544 302.361 22.843 301.568 22.843C300.801 22.843 300.203 22.492 299.709 21.92L298.695 22.908C299.371 23.688 300.216 24.156 301.503 24.156ZM306.599 16.226C307.275 16.226 307.574 15.875 307.574 15.394V15.134C307.574 14.653 307.275 14.302 306.599 14.302C305.91 14.302 305.624 14.653 305.624 15.134V15.394C305.624 15.875 305.91 16.226 306.599 16.226ZM305.767 24H307.431V17.214H305.767V24ZM311.479 24H312.675V22.674H311.388V18.54H312.779V17.214H311.388V15.355H309.893V16.512C309.893 16.98 309.737 17.214 309.243 17.214H308.723V18.54H309.724V22.271C309.724 23.376 310.335 24 311.479 24ZM320.727 24L321.884 19.203L322.469 16.811H322.495L323.054 19.203L324.211 24H326.148L328.319 14.926H326.681L325.758 19.281L325.186 22.063H325.147L324.51 19.281L323.47 14.926H321.572L320.532 19.281L319.882 22.063H319.843L319.284 19.281L318.387 14.926H316.671L318.777 24H320.727ZM332.085 24.156C333.346 24.156 334.334 23.675 334.893 22.908L333.996 21.907C333.58 22.44 333.086 22.83 332.267 22.83C331.175 22.83 330.616 22.167 330.616 21.192V21.023H335.127V20.477C335.127 18.618 334.152 17.058 332.033 17.058C330.044 17.058 328.887 18.449 328.887 20.594C328.887 22.765 330.083 24.156 332.085 24.156ZM332.059 18.306C332.917 18.306 333.398 18.943 333.398 19.879V19.996H330.616V19.892C330.616 18.956 331.188 18.306 332.059 18.306ZM336.591 24H338.255V22.869H338.307C338.567 23.636 339.282 24.156 340.179 24.156C341.895 24.156 342.844 22.869 342.844 20.594C342.844 18.332 341.895 17.058 340.179 17.058C339.282 17.058 338.554 17.552 338.307 18.332H338.255V14.38H336.591V24ZM339.646 22.778C338.853 22.778 338.255 22.375 338.255 21.673V19.515C338.255 18.852 338.853 18.423 339.646 18.423C340.504 18.423 341.102 19.06 341.102 20.022V21.192C341.102 22.154 340.504 22.778 339.646 22.778ZM346.609 24.156C348.299 24.156 349.404 23.246 349.404 21.933C349.404 20.802 348.689 20.139 347.207 19.931L346.518 19.84C345.881 19.736 345.634 19.528 345.634 19.073C345.634 18.657 345.946 18.371 346.661 18.371C347.324 18.371 347.896 18.683 348.286 19.099L349.261 18.124C348.611 17.448 347.935 17.058 346.609 17.058C345.062 17.058 344.035 17.89 344.035 19.203C344.035 20.438 344.841 21.075 346.297 21.257L346.973 21.348C347.571 21.426 347.805 21.673 347.805 22.063C347.805 22.544 347.467 22.843 346.674 22.843C345.907 22.843 345.309 22.492 344.815 21.92L343.801 22.908C344.477 23.688 345.322 24.156 346.609 24.156ZM351.706 16.226C352.382 16.226 352.681 15.875 352.681 15.394V15.134C352.681 14.653 352.382 14.302 351.706 14.302C351.017 14.302 350.731 14.653 350.731 15.134V15.394C350.731 15.875 351.017 16.226 351.706 16.226ZM350.874 24H352.538V17.214H350.874V24ZM356.585 24H357.781V22.674H356.494V18.54H357.885V17.214H356.494V15.355H354.999V16.512C354.999 16.98 354.843 17.214 354.349 17.214H353.829V18.54H354.83V22.271C354.83 23.376 355.441 24 356.585 24ZM362.021 24.156C363.282 24.156 364.27 23.675 364.829 22.908L363.932 21.907C363.516 22.44 363.022 22.83 362.203 22.83C361.111 22.83 360.552 22.167 360.552 21.192V21.023H365.063V20.477C365.063 18.618 364.088 17.058 361.969 17.058C359.98 17.058 358.823 18.449 358.823 20.594C358.823 22.765 360.019 24.156 362.021 24.156ZM361.995 18.306C362.853 18.306 363.334 18.943 363.334 19.879V19.996H360.552V19.892C360.552 18.956 361.124 18.306 361.995 18.306Z" fill="#E56135"/>
</svg>
